<svg width="113" height="79" viewBox="0 0 113 79" fill="none" xmlns="http://www.w3.org/2000/svg">
<path d="M22.8138 31C22.8138 40.9411 30.8726 49 40.8138 49L67.8138 49C70.5752 49 72.8138 46.7614 72.8138 44L72.8138 10C72.8138 4.47715 68.3366 -4.82823e-07 62.8138 0L27.8137 3.0598e-06C25.0523 3.30121e-06 22.8137 2.23858 22.8137 5L22.8138 31Z" fill="#FFF1DA"/>
<path d="M71.3977 44.9414C70.0393 45.2456 68.7163 45.8091 67.5108 46.5966C64.37 48.5979 62.5427 51.4546 63.4296 52.9767C64.3166 54.4989 67.5816 54.1096 70.7224 52.1083C71.9442 51.3487 73.0296 50.3779 73.9117 49.2559C74.3211 48.7138 74.3946 48.0384 74.0994 47.5334L72.9472 45.5561C72.654 45.0495 72.0459 44.8087 71.3977 44.9414Z" fill="#D5D6DB"/>
<path d="M63.5106 17.9483C62.5257 18.1691 61.5663 18.5779 60.692 19.1489C58.4152 20.5997 57.0894 22.6711 57.732 23.7739C58.3746 24.8767 60.7431 24.5942 63.0197 23.1435C63.9056 22.5924 64.6925 21.8882 65.3323 21.0745C65.6288 20.6816 65.6819 20.1922 65.4679 19.8262L64.6336 18.3944C64.4213 18.0272 63.9807 17.8522 63.5106 17.9483Z" fill="#D5D6DB"/>
<path d="M50.6965 19.0787C50.4772 19.0542 50.2434 19.1127 50.0407 19.2422L44.6925 22.6504C44.2451 22.9346 44.0661 23.4819 44.2931 23.8731C44.345 23.9628 44.416 24.0393 44.5022 24.0983L57.6838 33.1832L75.5173 21.8186L50.6965 19.0787Z" fill="#029BC5"/>
<path d="M107.073 17.7941L58.5415 48.3462L29.8287 59.7716L15.1856 62.6824L13.5746 59.9451L94.4698 9.99853C96.8806 8.50366 99.5662 7.5861 102.255 7.33901C103.433 7.23712 104.595 7.27628 105.717 7.45507C106.711 7.60578 107.653 7.89649 108.517 8.31858C109.481 8.79682 111.316 8.85197 111.91 9.80479C111.912 9.80326 113.314 14.1777 107.073 17.7941Z" fill="#E1E6E9"/>
<path d="M59.1848 44.3036L38.1895 77.7736C37.9273 78.2437 38.083 78.7702 38.5368 78.9495C38.8154 79.0595 39.1563 79.016 39.4427 78.834L44.7867 75.4439C45.8146 74.7915 46.7247 73.9629 47.4608 73.0094L88.1772 25.1404L59.1848 44.3036Z" fill="#029BC5"/>
<path d="M6.20516 43.1862C5.85494 43.0665 5.43816 43.1285 5.08633 43.3526L0.668835 46.166C0.0669194 46.5491 -0.172931 47.2855 0.13293 47.8112C0.191206 47.9111 0.266906 47.999 0.357642 48.0715L12.7344 57.9838L25.7474 49.8557L6.20516 43.1862Z" fill="#029BC5"/>
<path d="M16.8828 59.7707L10.2213 69.1003C10.1236 69.2343 10.1466 69.4026 10.2726 69.476C10.3634 69.5288 10.4874 69.5193 10.5882 69.4518L14.7164 66.8358C14.7485 66.8155 14.7775 66.79 14.8015 66.7609L24.5351 54.9262L16.8828 59.7707Z" fill="#029BC5"/>
<path d="M104.92 7.85731C103.765 7.67188 102.568 7.63228 101.355 7.73889C100.174 9.38997 99.4193 11.2447 99.1659 13.1181C99.1474 13.4944 99.4507 13.7653 99.8437 13.7231C99.9658 13.7098 100.087 13.6669 100.197 13.5982L107.804 8.75389C106.915 8.31529 105.944 8.01345 104.92 7.85731Z" fill="#029BC5"/>
<path d="M88.3407 16.7654L93.3077 13.6285L97.9343 21.4975L92.9673 24.6344L88.3407 16.7654Z" fill="#D5D6DB"/>
<path d="M85.2152 19.8776C84.6167 20.2568 84.3774 20.9856 84.6813 21.5053L85.1736 22.3473C85.4974 22.8537 86.2367 22.9428 86.825 22.5461C87.3848 22.1683 87.6103 21.4816 87.3405 20.9746L86.8482 20.1326C86.5445 19.6133 85.8137 19.4991 85.2152 19.8776Z" fill="#3A556A"/>
<path d="M80.7508 22.6501C80.1523 23.0292 79.913 23.758 80.2169 24.2777L80.7092 25.1197C81.033 25.6262 81.7723 25.7152 82.3606 25.3185C82.9204 24.9408 83.1459 24.2541 82.8761 23.7471L82.3838 22.9051C82.0799 22.386 81.3491 22.2717 80.7508 22.6501Z" fill="#3A556A"/>
<path d="M76.2849 25.4234C75.687 25.8031 75.4487 26.531 75.7523 27.0503L76.2446 27.8922C76.5684 28.3987 77.3077 28.4877 77.896 28.091C78.4558 27.7132 78.6813 27.0266 78.4115 26.5196L77.9192 25.6776C77.6153 25.1579 76.8837 25.0441 76.2849 25.4234Z" fill="#3A556A"/>
<path d="M71.8206 28.1958C71.2227 28.5755 70.9844 29.3034 71.288 29.8227L71.7803 30.6646C72.1041 31.1711 72.8434 31.2602 73.4317 30.8635C73.9915 30.4857 74.217 29.799 73.9472 29.292L73.4549 28.45C73.1507 27.9304 72.4192 27.8167 71.8206 28.1958Z" fill="#3A556A"/>
<path d="M67.3567 30.9685C66.7585 31.3483 66.52 32.0765 66.8238 32.596L67.3164 33.4384C67.62 33.9576 68.3513 34.0713 68.9497 33.6924C69.548 33.3134 69.7869 32.5852 69.4833 32.0659L68.9907 31.2236C68.6877 30.7038 67.9568 30.5894 67.358 30.9677C67.3575 30.968 67.3572 30.9682 67.3567 30.9685Z" fill="#3A556A"/>
<path d="M62.8923 33.7409C62.2941 34.1208 62.0556 34.849 62.3594 35.3685L62.852 36.2108C63.1556 36.7301 63.8869 36.8438 64.4852 36.4648C65.0836 36.0858 65.3225 35.3576 65.0188 34.8384L64.5262 33.996C64.2233 33.4763 63.4923 33.3618 62.8936 33.7401C62.8931 33.7405 62.8926 33.7408 62.8923 33.7409Z" fill="#3A556A"/>
<path d="M58.4277 36.5135C57.8295 36.8933 57.5909 37.6215 57.8947 38.141L58.3873 38.9833C58.6918 39.5021 59.4234 39.6146 60.0211 39.2351C60.6178 38.8563 60.8562 38.1297 60.5539 37.611L60.0613 36.7687C59.7578 36.2491 59.0266 36.1348 58.4277 36.5135Z" fill="#3A556A"/>
<path d="M53.9631 39.286C53.3649 39.6658 53.1264 40.394 53.4301 40.9135L53.9227 41.7558C54.2272 42.2746 54.9588 42.3872 55.5565 42.0077C56.1532 41.6289 56.3916 40.9022 56.0893 40.3835L55.5967 39.5412C55.2932 39.0216 54.562 38.9072 53.9631 39.286Z" fill="#3A556A"/>
<path d="M49.4988 42.0584C48.9006 42.4382 48.6621 43.1664 48.9659 43.6859L49.4584 44.5282C49.7629 45.047 50.4945 45.1596 51.0922 44.7801C51.6889 44.4012 51.9273 43.6746 51.625 43.156L51.1325 42.3136C50.8287 41.7942 50.0974 41.6799 49.4988 42.0584Z" fill="#3A556A"/>
<path d="M45.033 44.8316C44.4346 45.2106 44.1957 45.9388 44.4994 46.4581L44.9926 47.3015C45.297 47.8203 46.0286 47.9329 46.6264 47.5534C47.2231 47.1745 47.4615 46.4479 47.1592 45.9292L46.6666 45.0869C46.3631 44.5672 45.6319 44.4529 45.033 44.8316Z" fill="#3A556A"/>
<path d="M40.5698 47.6033C39.9714 47.9823 39.7325 48.7105 40.0362 49.2297L40.5294 50.0731C40.8339 50.5919 41.5655 50.7045 42.1632 50.325C42.7599 49.9462 42.9983 49.2195 42.6961 48.7009L42.2035 47.8586C41.8997 47.3391 41.1684 47.2248 40.5698 47.6033Z" fill="#3A556A"/>
</svg>
